<?xml version="1.0" encoding="utf-8"?>
<!-- Generator: Adobe Illustrator 26.0.3, SVG Export Plug-In . SVG Version: 6.00 Build 0)  -->
<svg version="1.1" id="Layer_1" xmlns="http://www.w3.org/2000/svg" xmlns:xlink="http://www.w3.org/1999/xlink" x="0px" y="0px"
	 viewBox="0 0 20 20" style="enable-background:new 0 0 20 20;" xml:space="preserve">
<style type="text/css">
	.st0{fill:#101828;}
</style>
<path class="st0" d="M10,20C4.5,20,0,15.5,0,10S4.5,0,10,0s10,4.5,10,10S15.5,20,10,20z M10,1.8c-4.5,0-8.2,3.7-8.2,8.2
	s3.7,8.2,8.2,8.2s8.2-3.7,8.2-8.2S14.5,1.8,10,1.8z M10,14.5c-0.5,0-0.9-0.4-0.9-0.9c0-0.5,0.4-0.9,0.9-0.9h0c0.5,0,0.9,0.4,0.9,0.9
	C10.9,14.1,10.5,14.5,10,14.5z M10,10.9c-0.5,0-0.9-0.4-0.9-0.9V6.4c0-0.5,0.4-0.9,0.9-0.9c0.5,0,0.9,0.4,0.9,0.9V10
	C10.9,10.5,10.5,10.9,10,10.9z"/>
</svg>
