<?xml version="1.0" encoding="utf-8"?>
<!-- Generator: Adobe Illustrator 26.0.3, SVG Export Plug-In . SVG Version: 6.00 Build 0)  -->
<svg version="1.1" id="Layer_1" xmlns="http://www.w3.org/2000/svg" xmlns:xlink="http://www.w3.org/1999/xlink" x="0px" y="0px"
	 viewBox="0 0 20 20" style="enable-background:new 0 0 20 20;" xml:space="preserve">
<style type="text/css">
	.st0{fill:#1D1D1B;}
</style>
<path class="st0" d="M2.6,18.8c-0.5,0-0.9-0.1-1.3-0.4c-0.4-0.2-0.7-0.6-0.9-1S0,16.6,0,16.1c0-0.5,0.1-0.9,0.4-1.3L7.8,2.5
	c0,0,0,0,0,0c0.2-0.4,0.6-0.7,1-0.9c0.8-0.4,1.8-0.4,2.6,0c0.4,0.2,0.7,0.5,1,0.9l7.4,12.4c0.2,0.4,0.4,0.9,0.4,1.3
	c0,0.5-0.1,0.9-0.3,1.3c-0.2,0.4-0.6,0.7-0.9,1c-0.4,0.2-0.8,0.4-1.3,0.4H2.6z M9.3,3.4L1.9,15.7c-0.1,0.1-0.1,0.3-0.1,0.4
	c0,0.2,0,0.3,0.1,0.4c0.1,0.1,0.2,0.2,0.3,0.3C2.3,17,2.5,17,2.6,17h14.8c0.1,0,0.3,0,0.4-0.1c0.1-0.1,0.2-0.2,0.3-0.3
	c0.1-0.1,0.1-0.3,0.1-0.4c0-0.2,0-0.3-0.1-0.4L10.7,3.4c-0.1-0.1-0.2-0.2-0.3-0.3c-0.3-0.1-0.6-0.1-0.9,0C9.4,3.1,9.3,3.3,9.3,3.4z
	 M10,15.3c-0.5,0-0.9-0.4-0.9-0.9c0-0.5,0.4-0.9,0.9-0.9h0c0.5,0,0.9,0.4,0.9,0.9C10.9,14.9,10.5,15.3,10,15.3z M10,11.8
	c-0.5,0-0.9-0.4-0.9-0.9V7.4c0-0.5,0.4-0.9,0.9-0.9c0.5,0,0.9,0.4,0.9,0.9v3.5C10.9,11.4,10.5,11.8,10,11.8z"/>
</svg>
