<?xml version="1.0" encoding="utf-8"?>
<!-- Generator: Adobe Illustrator 26.0.3, SVG Export Plug-In . SVG Version: 6.00 Build 0)  -->
<svg version="1.1" id="Layer_1" xmlns="http://www.w3.org/2000/svg" xmlns:xlink="http://www.w3.org/1999/xlink" x="0px" y="0px"
	 viewBox="0 0 20 20" style="enable-background:new 0 0 20 20;" xml:space="preserve">
<style type="text/css">
	.st0{fill:#1D1D1B;}
</style>
<path class="st0" d="M3.4,10.1c0-0.2,0.1-0.4,0.2-0.6l5.8-5.8c0.1-0.1,0.2-0.1,0.3-0.2c0.1,0,0.2-0.1,0.3-0.1s0.2,0,0.3,0.1
	c0.1,0,0.2,0.1,0.2,0.2l0,0l0,0l0,0l0,0l5.8,5.8c0.3,0.3,0.3,0.9,0,1.2c-0.3,0.3-0.9,0.3-1.2,0l-4.2-4.4V16c0,0.5-0.4,0.8-0.8,0.8
	S9.3,16.4,9.3,16V6.3l-4.4,4.4C4.6,11,4,11,3.7,10.7C3.5,10.5,3.4,10.3,3.4,10.1z"/>
</svg>
