<?xml version="1.0" encoding="utf-8"?>
<!-- Generator: Adobe Illustrator 26.0.3, SVG Export Plug-In . SVG Version: 6.00 Build 0)  -->
<svg version="1.1" id="Layer_1" xmlns="http://www.w3.org/2000/svg" xmlns:xlink="http://www.w3.org/1999/xlink" x="0px" y="0px"
	 viewBox="0 0 20 20" style="enable-background:new 0 0 20 20;" xml:space="preserve">
<style type="text/css">
	.st0{fill:#1D1D1B;}
</style>
<path class="st0" d="M10,3.6c0.2,0,0.4,0.1,0.6,0.2l5.8,5.8c0.1,0.1,0.1,0.2,0.2,0.3c0,0.1,0.1,0.2,0.1,0.3s0,0.2-0.1,0.3
	c0,0.1-0.1,0.2-0.2,0.2l0,0l0,0l0,0l0,0l-5.8,5.8c-0.3,0.3-0.9,0.3-1.2,0c-0.3-0.3-0.3-0.9,0-1.2l4.4-4.2H4.1
	c-0.5,0-0.8-0.4-0.8-0.8s0.4-0.8,0.8-0.8h9.7L9.4,5.1c-0.3-0.3-0.3-0.9,0-1.2C9.6,3.7,9.8,3.6,10,3.6z"/>
</svg>
