<?xml version="1.0" encoding="utf-8"?>
<!-- Generator: Adobe Illustrator 26.0.3, SVG Export Plug-In . SVG Version: 6.00 Build 0)  -->
<svg version="1.1" id="Layer_1" xmlns="http://www.w3.org/2000/svg" xmlns:xlink="http://www.w3.org/1999/xlink" x="0px" y="0px"
	 viewBox="0 0 24 24" style="enable-background:new 0 0 24 24;" xml:space="preserve">
<style type="text/css">
	.st0{fill:#1D1D1B;}
</style>
<path class="st0" d="M14.6,21.5c-0.3,0.5-0.6,0.8-1.1,1.1C13,22.9,12.5,23,12,23s-1-0.1-1.5-0.4C10,22.3,9.7,22,9.4,21.5
	c-0.3-0.5-0.1-1.1,0.4-1.4c0.5-0.3,1.1-0.1,1.4,0.4c0.1,0.2,0.2,0.3,0.4,0.4c0.3,0.2,0.7,0.2,1,0c0.2-0.1,0.3-0.2,0.4-0.4
	c0.3-0.5,0.9-0.6,1.4-0.4C14.7,20.4,14.9,21,14.6,21.5z M21.9,17.3C21.8,17.7,21.4,18,21,18H3c-0.4,0-0.8-0.3-1-0.7
	c-0.1-0.4,0-0.9,0.4-1.1c0,0,2.6-1.9,2.6-8.2c0-1.9,0.7-3.6,2.1-4.9C8.4,1.7,10.1,1,12,1s3.6,0.7,4.9,2.1C18.3,4.4,19,6.1,19,8
	c0,6.3,2.5,8.2,2.6,8.2C21.9,16.4,22.1,16.9,21.9,17.3z M18.9,16C18,14.5,17,12,17,8c0-1.3-0.5-2.6-1.5-3.5C14.6,3.5,13.3,3,12,3
	c-1.3,0-2.6,0.5-3.5,1.5C7.5,5.4,7,6.7,7,8c0,4-1,6.5-1.9,8H18.9z"/>
</svg>
