<?xml version="1.0" encoding="utf-8"?>
<!-- Generator: Adobe Illustrator 26.0.3, SVG Export Plug-In . SVG Version: 6.00 Build 0)  -->
<svg version="1.1" id="Layer_1" xmlns="http://www.w3.org/2000/svg" xmlns:xlink="http://www.w3.org/1999/xlink" x="0px" y="0px"
	 viewBox="0 0 24 24" style="enable-background:new 0 0 24 24;" xml:space="preserve">
<style type="text/css">
	.st0{fill:#1D1D1B;}
</style>
<path class="st0" d="M12,22c-0.6,0-1-0.4-1-1c0-0.5-0.2-1-0.6-1.4C10,19.2,9.5,19,9,19H2c-0.6,0-1-0.4-1-1V3c0-0.6,0.4-1,1-1h6
	c1.3,0,2.6,0.5,3.5,1.5C11.7,3.6,11.9,3.8,12,4c0.1-0.2,0.3-0.4,0.5-0.5C13.4,2.5,14.7,2,16,2h6c0.6,0,1,0.4,1,1v15c0,0.6-0.4,1-1,1
	h-7c-0.5,0-1,0.2-1.4,0.6S13,20.5,13,21C13,21.6,12.6,22,12,22z M3,17h6c0.7,0,1.4,0.2,2,0.5V7c0-0.8-0.3-1.6-0.9-2.1
	C9.6,4.3,8.8,4,8,4H3V17z M13,7v10.5c0.6-0.3,1.3-0.5,2-0.5h6V4h-5c-0.8,0-1.6,0.3-2.1,0.9C13.3,5.4,13,6.2,13,7z"/>
</svg>
