<?xml version="1.0" encoding="utf-8"?>
<!-- Generator: Adobe Illustrator 26.0.3, SVG Export Plug-In . SVG Version: 6.00 Build 0)  -->
<svg version="1.1" id="Layer_1" xmlns="http://www.w3.org/2000/svg" xmlns:xlink="http://www.w3.org/1999/xlink" x="0px" y="0px"
	 viewBox="0 0 20 20" style="enable-background:new 0 0 20 20;" xml:space="preserve">
<style type="text/css">
	.st0{fill:#1D1D1B;}
</style>
<path class="st0" d="M10,19.1c-1.1,0-2.1-0.2-3.2-0.6c-1.8-0.7-3.4-1.9-4.5-3.6s-1.6-3.6-1.4-5.5s0.9-3.8,2.2-5.3s3-2.5,4.9-3
	c1.9-0.4,3.9-0.2,5.7,0.6c0.4,0.2,0.5,0.6,0.4,1c-0.2,0.4-0.6,0.5-1,0.4c-1.5-0.7-3.2-0.8-4.8-0.5C6.7,3,5.3,3.8,4.2,5.1
	C3.2,6.3,2.5,7.9,2.4,9.5c-0.1,1.6,0.3,3.3,1.2,4.6c0.9,1.4,2.2,2.4,3.7,3c1.5,0.6,3.2,0.6,4.8,0.2c1.6-0.5,3-1.4,3.9-2.7
	c1-1.3,1.5-2.9,1.5-4.5V9.2c0-0.4,0.3-0.8,0.8-0.8s0.8,0.3,0.8,0.8V10c0,1.9-0.6,3.9-1.8,5.4s-2.8,2.7-4.7,3.3
	C11.7,19,10.9,19.1,10,19.1z M10,12.4c-0.2,0-0.4-0.1-0.5-0.2L7,9.7C6.7,9.4,6.7,8.9,7,8.6s0.8-0.3,1.1,0l2,2l7.8-7.8
	c0.3-0.3,0.8-0.3,1.1,0c0.3,0.3,0.3,0.8,0,1.1l-8.3,8.3C10.4,12.3,10.2,12.4,10,12.4z"/>
</svg>
