<?xml version="1.0" encoding="utf-8"?>
<!-- Generator: Adobe Illustrator 26.0.3, SVG Export Plug-In . SVG Version: 6.00 Build 0)  -->
<svg version="1.1" id="Layer_1" xmlns="http://www.w3.org/2000/svg" xmlns:xlink="http://www.w3.org/1999/xlink" x="0px" y="0px"
	 viewBox="0 0 20 20" style="enable-background:new 0 0 20 20;" xml:space="preserve">
<style type="text/css">
	.st0{fill:#1D1D1B;}
</style>
<path class="st0" d="M10,19.1c-5,0-9.1-4.1-9.1-9.1S5,0.9,10,0.9S19.1,5,19.1,10S15,19.1,10,19.1z M10,2.4c-4.2,0-7.6,3.4-7.6,7.6
	s3.4,7.6,7.6,7.6s7.6-3.4,7.6-7.6S14.2,2.4,10,2.4z M13.3,12.4c-0.1,0-0.2,0-0.3-0.1l-3.3-1.7c-0.3-0.1-0.4-0.4-0.4-0.7V5
	c0-0.4,0.3-0.8,0.8-0.8s0.8,0.3,0.8,0.8v4.5l2.9,1.5c0.4,0.2,0.5,0.6,0.3,1C13.9,12.3,13.6,12.4,13.3,12.4z"/>
</svg>
