<?xml version="1.0" encoding="utf-8"?>
<!-- Generator: Adobe Illustrator 26.0.3, SVG Export Plug-In . SVG Version: 6.00 Build 0)  -->
<svg version="1.1" id="Layer_1" xmlns="http://www.w3.org/2000/svg" xmlns:xlink="http://www.w3.org/1999/xlink" x="0px" y="0px"
	 viewBox="0 0 24 24" style="enable-background:new 0 0 24 24;" xml:space="preserve">
<style type="text/css">
	.st0{fill:#1D1D1B;}
</style>
<path class="st0" d="M12,23C12,23,12,23,12,23c-0.1,0-0.2,0-0.3,0c-0.1,0-0.1,0-0.2-0.1c0,0-0.1,0-0.1-0.1l-10-6.5
	c-0.1,0-0.1-0.1-0.2-0.1c-0.1-0.1-0.1-0.2-0.2-0.2c0-0.1-0.1-0.1-0.1-0.2c0,0,0,0,0,0v0c0-0.1,0-0.2,0-0.3c0,0,0,0,0,0v-7
	c0,0,0,0,0,0c0-0.1,0-0.2,0-0.3c0,0,0,0,0,0c0,0,0,0,0,0c0-0.1,0-0.1,0.1-0.2c0-0.1,0.1-0.2,0.2-0.2c0.1-0.1,0.1-0.1,0.2-0.1l10-6.5
	c0,0,0.1,0,0.1-0.1c0.1,0,0.1-0.1,0.2-0.1c0.1,0,0.2,0,0.3,0c0,0,0,0,0,0c0.1,0,0.2,0,0.3,0c0.1,0,0.1,0,0.2,0.1c0,0,0.1,0,0.1,0.1
	l10,6.5c0.1,0,0.1,0.1,0.2,0.1c0.1,0.1,0.1,0.2,0.2,0.2c0,0.1,0.1,0.1,0.1,0.2v0c0,0,0,0,0,0c0,0.1,0,0.2,0,0.3c0,0,0,0,0,0v7
	c0,0,0,0,0,0c0,0.1,0,0.2,0,0.3v0c0,0,0,0,0,0c0,0.1,0,0.1-0.1,0.2c0,0.1-0.1,0.2-0.2,0.2c-0.1,0-0.1,0.1-0.2,0.1l-10,6.5
	c0,0-0.1,0-0.1,0.1c-0.1,0-0.1,0.1-0.2,0.1C12.2,23,12.1,23,12,23z M13,16v4.1l7.2-4.7L17,13.2L13,16z M3.8,15.5l7.2,4.7V16l-4-2.8
	L3.8,15.5z M8.7,12l3.3,2.3l3.3-2.3L12,9.7L8.7,12z M18.7,12l2.3,1.6v-3.2L18.7,12z M3,10.4v3.2L5.3,12L3,10.4z M13,8l4,2.8l3.2-2.2
	L13,3.8V8z M3.8,8.5L7,10.8L11,8V3.8L3.8,8.5z"/>
</svg>
