<?xml version="1.0" encoding="utf-8"?>
<!-- Generator: Adobe Illustrator 26.0.3, SVG Export Plug-In . SVG Version: 6.00 Build 0)  -->
<svg version="1.1" id="Layer_1" xmlns="http://www.w3.org/2000/svg" xmlns:xlink="http://www.w3.org/1999/xlink" x="0px" y="0px"
	 viewBox="0 0 24 24" style="enable-background:new 0 0 24 24;" xml:space="preserve">
<style type="text/css">
	.st0{fill:#1D1D1B;}
</style>
<path class="st0" d="M17,23c-1.5,0-3.1-0.6-4.3-1.8c-0.3-0.3-0.5-0.6-0.7-0.9c-1,0.3-2.2,0.4-3.4,0.4c-3.2,0-6.6-1-6.6-3.2V4.2
	c0,0,0,0,0,0C2,2,5.4,1,8.6,1c1.6,0,3.2,0.3,4.3,0.7c1.9,0.8,2.2,1.8,2.3,2.4c0,0,0,0,0,0.1v4.4c0,0,0,0,0,0c0,0,0,0,0,0.1v2.5
	c2.1-0.6,4.4-0.1,6.1,1.5l0,0c1.1,1.1,1.8,2.6,1.8,4.2c0,1.6-0.6,3.1-1.8,4.2C20.1,22.4,18.5,23,17,23z M13.4,18.8
	c0.2,0.4,0.4,0.7,0.7,1c1.6,1.6,4.1,1.6,5.7,0c0.8-0.8,1.2-1.8,1.2-2.8c0-1.1-0.4-2.1-1.2-2.8l0,0c-1.4-1.4-3.5-1.5-5-0.5
	c0,0-0.1,0-0.1,0.1c-0.2,0.1-0.4,0.3-0.6,0.5c-0.8,0.8-1.2,1.8-1.2,2.8c0,0.6,0.1,1.1,0.4,1.6C13.3,18.7,13.4,18.7,13.4,18.8
	C13.4,18.8,13.4,18.8,13.4,18.8z M4,15.5v2c0.1,0.3,1.7,1.2,4.6,1.2c0.9,0,1.8-0.1,2.5-0.3c-0.1-0.5-0.2-1-0.2-1.5
	c0-0.3,0-0.6,0.1-0.9C8.8,16.5,5.9,16.4,4,15.5z M4,13.1C4,13.1,4,13.1,4,13.1c0.1,0.4,1.7,1.3,4.6,1.3c1.2,0,2.3-0.2,3.2-0.5
	c0.2-0.4,0.5-0.8,0.9-1.1c0.2-0.1,0.3-0.3,0.5-0.4v-1.3c-2.5,1.1-6.7,1.1-9.2,0V13.1z M4,8.7C4.1,9,5.7,9.9,8.6,9.9
	c2.9,0,4.5-0.9,4.6-1.2v-2c-2.5,1.1-6.7,1.1-9.2,0L4,8.7C4,8.6,4,8.6,4,8.7z M4,8.7L4,8.7L4,8.7z M4,4.2c0.2,0.4,1.7,1.2,4.6,1.2
	s4.4-0.9,4.6-1.2C13,3.9,11.4,3,8.6,3C5.7,3,4.2,3.9,4,4.2z"/>
</svg>
