<?xml version="1.0" encoding="utf-8"?>
<!-- Generator: Adobe Illustrator 26.0.3, SVG Export Plug-In . SVG Version: 6.00 Build 0)  -->
<svg version="1.1" id="Layer_1" xmlns="http://www.w3.org/2000/svg" xmlns:xlink="http://www.w3.org/1999/xlink" x="0px" y="0px"
	 viewBox="0 0 20 20" style="enable-background:new 0 0 20 20;" xml:space="preserve">
<style type="text/css">
	.st0{fill:#1D1D1B;}
</style>
<path class="st0" d="M7.8,5.3c-3.8,0-6.9,3.1-6.9,6.9s3.1,6.9,6.9,6.9s6.9-3.1,6.9-6.9S11.6,5.3,7.8,5.3z M7.8,17.6
	c-3,0-5.4-2.4-5.4-5.4s2.4-5.4,5.4-5.4s5.4,2.4,5.4,5.4S10.8,17.6,7.8,17.6z M19.1,7.8c0,1.8-0.7,3.6-2,4.9
	c-0.1,0.1-0.3,0.2-0.5,0.2s-0.4-0.1-0.5-0.2c-0.3-0.3-0.3-0.8,0-1.1c1-1,1.6-2.4,1.6-3.8C17.6,6.4,17,5,16,4c-1-1-2.4-1.6-3.8-1.6
	C10.8,2.4,9.4,3,8.4,4C8.1,4.3,7.6,4.3,7.3,4C7,3.7,7,3.2,7.3,2.9c1.3-1.3,3-2,4.9-2c1.8,0,3.6,0.7,4.9,2C18.4,4.2,19.1,6,19.1,7.8z
	"/>
</svg>
