<?xml version="1.0" encoding="utf-8"?>
<!-- Generator: Adobe Illustrator 26.0.3, SVG Export Plug-In . SVG Version: 6.00 Build 0)  -->
<svg version="1.1" id="Layer_1" xmlns="http://www.w3.org/2000/svg" xmlns:xlink="http://www.w3.org/1999/xlink" x="0px" y="0px"
	 viewBox="0 0 20 20" style="enable-background:new 0 0 20 20;" xml:space="preserve">
<style type="text/css">
	.st0{fill:#1D1D1B;}
</style>
<path class="st0" d="M16.7,19.1H9.2c-1.3,0-2.4-1.1-2.4-2.4V9.2c0-1.3,1.1-2.4,2.4-2.4h7.5c1.3,0,2.4,1.1,2.4,2.4v7.5
	C19.1,18,18,19.1,16.7,19.1z M9.2,8.2c-0.5,0-0.9,0.4-0.9,0.9v7.5c0,0.5,0.4,0.9,0.9,0.9h7.5c0.5,0,0.9-0.4,0.9-0.9V9.2
	c0-0.5-0.4-0.9-0.9-0.9H9.2z M4.2,13.2H3.3c-0.6,0-1.3-0.3-1.7-0.7c-0.5-0.5-0.7-1.1-0.7-1.7V3.3c0-0.6,0.3-1.3,0.7-1.7
	s1.1-0.7,1.7-0.7h7.5c0.6,0,1.3,0.3,1.7,0.7c0.5,0.5,0.7,1.1,0.7,1.7v0.8c0,0.4-0.3,0.8-0.8,0.8s-0.8-0.3-0.8-0.8V3.3
	c0-0.2-0.1-0.5-0.3-0.6s-0.4-0.3-0.6-0.3H3.3c-0.2,0-0.5,0.1-0.6,0.3S2.4,3.1,2.4,3.3v7.5c0,0.2,0.1,0.5,0.3,0.6s0.4,0.3,0.6,0.3
	h0.8c0.4,0,0.8,0.3,0.8,0.8S4.6,13.2,4.2,13.2z"/>
</svg>
