<?xml version="1.0" encoding="utf-8"?>
<!-- Generator: Adobe Illustrator 26.0.3, SVG Export Plug-In . SVG Version: 6.00 Build 0)  -->
<svg version="1.1" id="Layer_1" xmlns="http://www.w3.org/2000/svg" xmlns:xlink="http://www.w3.org/1999/xlink" x="0px" y="0px"
	 viewBox="0 0 20 20" style="enable-background:new 0 0 20 20;" xml:space="preserve">
<style type="text/css">
	.st0{fill:#1D1D1B;}
</style>
<path class="st0" d="M10,17.4c-6.2,0-9.7-6.8-9.8-7.1c-0.1-0.2-0.1-0.5,0-0.7C0.3,9.4,3.8,2.6,10,2.6c6.2,0,9.7,6.8,9.8,7.1
	c0.1,0.2,0.1,0.5,0,0.7C19.7,10.6,16.2,17.4,10,17.4z M1.7,10c0.8,1.3,3.7,5.9,8.3,5.9c4.6,0,7.6-4.6,8.3-5.9
	c-0.8-1.3-3.7-5.9-8.3-5.9C5.4,4.1,2.4,8.7,1.7,10z M10,13.2c-1.8,0-3.2-1.5-3.2-3.2S8.2,6.7,10,6.7s3.2,1.5,3.2,3.3
	S11.8,13.2,10,13.2z M10,8.2C9,8.2,8.2,9,8.2,10S9,11.7,10,11.7s1.8-0.8,1.8-1.8S11,8.2,10,8.2z"/>
</svg>
