<?xml version="1.0" encoding="utf-8"?>
<!-- Generator: Adobe Illustrator 26.0.3, SVG Export Plug-In . SVG Version: 6.00 Build 0)  -->
<svg version="1.1" id="Layer_1" xmlns="http://www.w3.org/2000/svg" xmlns:xlink="http://www.w3.org/1999/xlink" x="0px" y="0px"
	 viewBox="0 0 20 20" style="enable-background:new 0 0 20 20;" xml:space="preserve">
<style type="text/css">
	.st0{fill:#1D1D1B;}
</style>
<path class="st0" d="M3.3,19.1c-0.4,0-0.8-0.3-0.8-0.8V2.5c0-0.2,0.1-0.4,0.2-0.5c0.1-0.1,1.1-1.1,3.9-1.1c1.4,0,2.5,0.5,3.6,0.9
	c1,0.4,1.9,0.8,3.1,0.8c2.1,0,2.8-0.6,2.8-0.6c0.2-0.2,0.5-0.3,0.8-0.1c0.3,0.1,0.5,0.4,0.5,0.7v10c0,0.2-0.1,0.4-0.2,0.5
	c-0.1,0.1-1.1,1.1-3.9,1.1c-1.4,0-2.5-0.5-3.6-0.9c-1-0.4-1.9-0.8-3.1-0.8c-1.4,0-2.2,0.3-2.6,0.5v5.4C4.1,18.7,3.7,19.1,3.3,19.1z
	 M6.7,10.9c1.4,0,2.5,0.5,3.6,0.9c1,0.4,1.9,0.8,3.1,0.8c1.4,0,2.2-0.3,2.6-0.5V3.7c-0.6,0.2-1.4,0.4-2.6,0.4
	c-1.4,0-2.5-0.5-3.6-0.9c-1-0.4-1.9-0.8-3.1-0.8c-1.4,0-2.2,0.3-2.6,0.5v8.4C4.7,11.1,5.5,10.9,6.7,10.9z"/>
</svg>
