<?xml version="1.0" encoding="utf-8"?>
<!-- Generator: Adobe Illustrator 26.0.3, SVG Export Plug-In . SVG Version: 6.00 Build 0)  -->
<svg version="1.1" id="Layer_1" xmlns="http://www.w3.org/2000/svg" xmlns:xlink="http://www.w3.org/1999/xlink" x="0px" y="0px"
	 viewBox="0 0 20 20" style="enable-background:new 0 0 20 20;" xml:space="preserve">
<style type="text/css">
	.st0{fill:#1D1D1B;}
</style>
<path class="st0" d="M10,18.4c-0.2,0-0.4-0.1-0.5-0.2l-7.4-7.4c-1-1-1.6-2.3-1.6-3.8c0-1.4,0.6-2.8,1.6-3.8c1-1,2.3-1.6,3.8-1.6
	s2.8,0.6,3.8,1.6L10,3.7l0.4-0.4c0.5-0.5,1.1-0.9,1.7-1.2c1.3-0.5,2.8-0.5,4.1,0c0.7,0.3,1.2,0.7,1.7,1.2s0.9,1.1,1.2,1.7
	c0.3,0.7,0.4,1.3,0.4,2s-0.1,1.4-0.4,2c-0.3,0.7-0.7,1.2-1.2,1.7l-7.4,7.4C10.4,18.4,10.2,18.4,10,18.4z M5.9,3.2
	c-1,0-2,0.4-2.7,1.1C2.4,5.1,2,6.1,2,7.1c0,1,0.4,2,1.1,2.7l6.8,6.8l6.8-6.8c0.4-0.4,0.6-0.8,0.8-1.2c0.2-0.5,0.3-1,0.3-1.5
	s-0.1-1-0.3-1.5c-0.2-0.5-0.5-0.9-0.8-1.2c0,0,0,0,0,0c-0.4-0.4-0.8-0.6-1.2-0.8c-0.9-0.4-2-0.4-2.9,0c-0.5,0.2-0.9,0.5-1.2,0.8
	l-0.9,0.9c-0.3,0.3-0.8,0.3-1.1,0L8.6,4.4C7.9,3.6,6.9,3.2,5.9,3.2z"/>
</svg>
