<?xml version="1.0" encoding="utf-8"?>
<!-- Generator: Adobe Illustrator 26.0.3, SVG Export Plug-In . SVG Version: 6.00 Build 0)  -->
<svg version="1.1" id="Layer_1" xmlns="http://www.w3.org/2000/svg" xmlns:xlink="http://www.w3.org/1999/xlink" x="0px" y="0px"
	 viewBox="0 0 24 24" style="enable-background:new 0 0 24 24;" xml:space="preserve">
<style type="text/css">
	.st0{fill:#1D1D1B;}
</style>
<path class="st0" d="M7.5,22C7.5,22,7.5,22,7.5,22c-0.9,0-1.7-0.2-2.5-0.5c-0.8-0.3-1.5-0.8-2.1-1.4c-1.2-1.2-1.8-2.9-1.8-4.6
	c0-1.7,0.7-3.3,1.9-4.5c1.2-1.2,2.8-1.9,4.5-1.9c1.4,0,2.7,0.4,3.8,1.2l9-9c0.4-0.4,1-0.4,1.4,0C21.9,1.5,22,1.7,22,2
	s-0.1,0.5-0.3,0.7L20.4,4l2.3,2.3c0.4,0.4,0.4,1,0,1.4l-3.5,3.5c-0.4,0.4-1,0.4-1.4,0l-2.3-2.3l-2.7,2.7c0.3,0.4,0.6,0.9,0.8,1.3
	c0.3,0.8,0.5,1.6,0.5,2.5c0,0.9-0.2,1.7-0.5,2.5s-0.8,1.5-1.4,2.1s-1.3,1.1-2.1,1.4C9.2,21.9,8.4,22,7.5,22z M7.6,11.1
	C7.6,11.1,7.5,11.1,7.6,11.1c-1.2,0-2.3,0.5-3.2,1.3c-0.8,0.8-1.3,2-1.3,3.1s0.4,2.3,1.3,3.2c0.4,0.4,0.9,0.7,1.5,1
	C6.3,19.9,6.9,20,7.5,20c0.6,0,1.2-0.1,1.7-0.3c0.6-0.2,1-0.6,1.5-1c0.4-0.4,0.8-0.9,1-1.5c0.2-0.6,0.3-1.1,0.3-1.7
	c0-0.6-0.1-1.2-0.4-1.7c-0.2-0.5-0.6-1-1-1.5C9.8,11.5,8.7,11.1,7.6,11.1z M16.9,7.5l1.6,1.6L20.6,7L19,5.4L16.9,7.5z"/>
</svg>
