<?xml version="1.0" encoding="utf-8"?>
<!-- Generator: Adobe Illustrator 26.0.3, SVG Export Plug-In . SVG Version: 6.00 Build 0)  -->
<svg version="1.1" id="Layer_1" xmlns="http://www.w3.org/2000/svg" xmlns:xlink="http://www.w3.org/1999/xlink" x="0px" y="0px"
	 viewBox="0 0 20 20" style="enable-background:new 0 0 20 20;" xml:space="preserve">
<style type="text/css">
	.st0{fill:#1D1D1B;}
</style>
<path class="st0" d="M10,19.1c-0.4,0-0.8-0.3-0.8-0.8V15c0-0.4,0.3-0.8,0.8-0.8s0.8,0.3,0.8,0.8v3.3C10.8,18.7,10.4,19.1,10,19.1z
	 M4.1,16.6c-0.2,0-0.4-0.1-0.5-0.2c-0.3-0.3-0.3-0.8,0-1.1L5.9,13c0.3-0.3,0.8-0.3,1.1,0s0.3,0.8,0,1.1l-2.4,2.4
	C4.5,16.6,4.3,16.6,4.1,16.6z M15.9,16.6c-0.2,0-0.4-0.1-0.5-0.2L13,14.1c-0.3-0.3-0.3-0.8,0-1.1s0.8-0.3,1.1,0l2.4,2.4
	c0.3,0.3,0.3,0.8,0,1.1C16.3,16.6,16.1,16.6,15.9,16.6z M18.3,10.7H15c-0.4,0-0.8-0.3-0.8-0.8s0.3-0.8,0.8-0.8h3.3
	c0.4,0,0.8,0.3,0.8,0.8S18.7,10.7,18.3,10.7z M5,10.7H1.7c-0.4,0-0.8-0.3-0.8-0.8s0.3-0.8,0.8-0.8H5c0.4,0,0.8,0.3,0.8,0.8
	S5.4,10.7,5,10.7z M13.5,7.2c-0.2,0-0.4-0.1-0.5-0.2c-0.3-0.3-0.3-0.8,0-1.1l2.4-2.4c0.3-0.3,0.8-0.3,1.1,0s0.3,0.8,0,1.1L14.1,7
	C13.9,7.1,13.7,7.2,13.5,7.2z M6.5,7.2C6.3,7.2,6.1,7.1,5.9,7L3.6,4.6c-0.3-0.3-0.3-0.8,0-1.1s0.8-0.3,1.1,0L7,5.9
	C7.3,6.2,7.3,6.7,7,7C6.9,7.1,6.7,7.2,6.5,7.2z M10,5.7C9.6,5.7,9.2,5.4,9.2,5V1.7c0-0.4,0.3-0.8,0.8-0.8s0.8,0.3,0.8,0.8V5
	C10.8,5.4,10.4,5.7,10,5.7z"/>
</svg>
