<?xml version="1.0" encoding="utf-8"?>
<!-- Generator: Adobe Illustrator 26.0.3, SVG Export Plug-In . SVG Version: 6.00 Build 0)  -->
<svg version="1.1" id="Layer_1" xmlns="http://www.w3.org/2000/svg" xmlns:xlink="http://www.w3.org/1999/xlink" x="0px" y="0px"
	 viewBox="0 0 20 20" style="enable-background:new 0 0 20 20;" xml:space="preserve">
<style type="text/css">
	.st0{fill:#1D1D1B;}
</style>
<path class="st0" d="M8.2,17.5c0,0.4-0.3,0.8-0.8,0.8H4.2c-0.6,0-1.3-0.3-1.7-0.7c-0.5-0.5-0.7-1.1-0.7-1.7V4.2
	c0-0.6,0.3-1.3,0.7-1.7s1.1-0.7,1.7-0.7h3.3c0.4,0,0.8,0.3,0.8,0.8S7.9,3.2,7.5,3.2H4.2c-0.2,0-0.5,0.1-0.6,0.3S3.2,3.9,3.2,4.2
	v11.7c0,0.2,0.1,0.5,0.3,0.6s0.4,0.3,0.6,0.3h3.3C7.9,16.7,8.2,17.1,8.2,17.5z M18.2,9.7c0-0.1-0.1-0.2-0.2-0.2c0,0,0,0,0,0
	c0,0,0,0,0,0l0,0l-4.2-4.2c-0.3-0.3-0.8-0.3-1.1,0s-0.3,0.8,0,1.1l2.9,2.9H7.5c-0.4,0-0.8,0.3-0.8,0.8s0.3,0.8,0.8,0.8h8.2l-2.9,2.9
	c-0.3,0.3-0.3,0.8,0,1.1c0.1,0.1,0.3,0.2,0.5,0.2s0.4-0.1,0.5-0.2l4.2-4.2c0,0,0,0,0,0l0,0c0,0,0,0,0,0c0,0,0,0,0,0c0,0,0,0,0,0
	c0,0,0,0,0,0c0,0,0,0,0,0c0,0,0,0,0,0c0.1-0.1,0.1-0.1,0.2-0.2c0,0,0,0,0,0c0-0.1,0.1-0.2,0.1-0.3v0c0,0,0,0,0,0c0,0,0,0,0,0
	c0,0,0,0,0,0c0,0,0,0,0,0c0,0,0,0,0,0v0C18.2,9.9,18.2,9.8,18.2,9.7z"/>
</svg>
