<?xml version="1.0" encoding="utf-8"?>
<!-- Generator: Adobe Illustrator 26.0.3, SVG Export Plug-In . SVG Version: 6.00 Build 0)  -->
<svg version="1.1" id="Layer_1" xmlns="http://www.w3.org/2000/svg" xmlns:xlink="http://www.w3.org/1999/xlink" x="0px" y="0px"
	 viewBox="0 0 20 20" style="enable-background:new 0 0 20 20;" xml:space="preserve">
<style type="text/css">
	.st0{fill:#1D1D1B;}
</style>
<path class="st0" d="M13.9,7.8c0.3,0.3,0.3,0.8,0,1.1l-3.3,3.3c-0.1,0.1-0.3,0.2-0.5,0.2s-0.4-0.1-0.5-0.2L6.1,8.9
	c-0.3-0.3-0.3-0.8,0-1.1s0.8-0.3,1.1,0l2.8,2.8l2.8-2.8C13.1,7.5,13.6,7.5,13.9,7.8z M19.1,4.2v5c0,2.4-0.9,4.7-2.7,6.4
	c-1.7,1.7-4,2.7-6.4,2.7c-1.2,0-2.4-0.2-3.5-0.7c-1.1-0.5-2.1-1.1-2.9-2c-1.7-1.7-2.7-4-2.7-6.4v-5c0-0.6,0.3-1.3,0.7-1.7
	s1.1-0.7,1.7-0.7h13.3c0.6,0,1.3,0.3,1.7,0.7C18.8,2.9,19.1,3.5,19.1,4.2z M17.6,4.2c0-0.2-0.1-0.5-0.3-0.6s-0.4-0.3-0.6-0.3H3.3
	c-0.2,0-0.5,0.1-0.6,0.3S2.4,3.9,2.4,4.2v5c0,2,0.8,3.9,2.2,5.4c0.7,0.7,1.5,1.3,2.5,1.6C8,16.6,9,16.8,10,16.8c2,0,3.9-0.8,5.4-2.2
	c1.4-1.4,2.2-3.3,2.2-5.4V4.2z"/>
</svg>
