<?xml version="1.0" encoding="utf-8"?>
<!-- Generator: Adobe Illustrator 26.0.3, SVG Export Plug-In . SVG Version: 6.00 Build 0)  -->
<svg version="1.1" id="Layer_1" xmlns="http://www.w3.org/2000/svg" xmlns:xlink="http://www.w3.org/1999/xlink" x="0px" y="0px"
	 viewBox="0 0 20 20" style="enable-background:new 0 0 20 20;" xml:space="preserve">
<style type="text/css">
	.st0{fill:#1D1D1B;}
</style>
<path class="st0" d="M11.8,7.5c0-0.4,0.3-0.8,0.7-0.8h0c0.4,0,0.8,0.3,0.8,0.8s-0.3,0.8-0.8,0.8S11.8,7.9,11.8,7.5z M7.5,8.2
	c0.4,0,0.8-0.3,0.8-0.8S7.9,6.7,7.5,6.7h0c-0.4,0-0.7,0.3-0.7,0.8S7.1,8.2,7.5,8.2z M12.7,11.2c0,0-1.1,1.4-2.7,1.4
	c-1.7,0-2.7-1.3-2.7-1.4c-0.2-0.3-0.7-0.4-1-0.1c-0.3,0.2-0.4,0.7-0.1,1.1c0.1,0.1,1.5,2,3.9,2c2.4,0,3.9-1.9,3.9-2
	c0.2-0.3,0.2-0.8-0.1-1C13.5,10.8,13,10.9,12.7,11.2z M19.1,10c0,5-4.1,9.1-9.1,9.1S0.9,15,0.9,10S5,0.9,10,0.9S19.1,5,19.1,10z
	 M17.6,10c0-4.2-3.4-7.6-7.6-7.6S2.4,5.8,2.4,10s3.4,7.6,7.6,7.6S17.6,14.2,17.6,10z"/>
</svg>
