<?xml version="1.0" encoding="utf-8"?>
<!-- Generator: Adobe Illustrator 26.0.3, SVG Export Plug-In . SVG Version: 6.00 Build 0)  -->
<svg version="1.1" id="Layer_1" xmlns="http://www.w3.org/2000/svg" xmlns:xlink="http://www.w3.org/1999/xlink" x="0px" y="0px"
	 viewBox="0 0 20 20" style="enable-background:new 0 0 20 20;" xml:space="preserve">
<style type="text/css">
	.st0{fill:#1D1D1B;}
</style>
<path class="st0" d="M10,18.3c-0.5,0-0.8-0.4-0.8-0.8V12l-1.9,1.9c-0.3,0.3-0.9,0.3-1.2,0c-0.3-0.3-0.3-0.9,0-1.2l3.3-3.3
	c0,0,0,0,0,0l0,0c0,0,0,0,0,0h0c0,0,0,0,0,0c0,0,0,0,0,0c0,0,0,0,0,0l0,0c0,0,0,0,0,0s0,0,0,0c0,0,0,0,0,0c0,0,0,0,0,0c0,0,0,0,0,0
	c0,0,0,0,0,0c0,0,0,0,0,0c0,0,0,0,0,0h0c0.1-0.1,0.2-0.1,0.2-0.2c0.1,0,0.2-0.1,0.3-0.1c0,0,0,0,0,0c0,0,0,0,0,0c0,0,0,0,0,0
	c0,0,0,0,0,0l0,0l0,0l0,0c0,0,0,0,0,0c0,0,0,0,0,0c0,0,0,0,0,0c0,0,0,0,0,0c0,0,0,0,0,0c0.1,0,0.2,0,0.3,0.1c0.1,0,0.2,0.1,0.3,0.2
	c0,0,0,0,0,0c0,0,0,0,0,0h0c0,0,0,0,0,0c0,0,0,0,0,0c0,0,0,0,0,0l0,0c0,0,0,0,0,0l3.3,3.3c0.3,0.3,0.3,0.9,0,1.2
	c-0.3,0.3-0.9,0.3-1.2,0L10.8,12v5.5C10.8,18,10.5,18.3,10,18.3z M17,16.2c-0.3,0-0.6-0.2-0.7-0.4c-0.2-0.4-0.1-0.9,0.3-1.1
	c0.6-0.4,1.2-0.9,1.5-1.6s0.4-1.4,0.2-2.2C18,10.1,17.6,9.5,17,9c-0.6-0.5-1.3-0.7-2-0.7h-1c-0.4,0-0.7-0.3-0.8-0.6
	c-0.2-0.8-0.6-1.6-1.2-2.3c-0.6-0.7-1.3-1.2-2.1-1.6S8.2,3.3,7.3,3.3C6.4,3.4,5.5,3.6,4.8,4C4,4.4,3.3,5,2.8,5.7
	c-0.5,0.7-0.9,1.5-1,2.4C1.6,9,1.6,9.9,1.9,10.7s0.7,1.6,1.2,2.3c0.3,0.3,0.3,0.9-0.1,1.2c-0.3,0.3-0.9,0.3-1.2-0.1
	c-0.7-0.8-1.3-1.9-1.6-2.9C0,10.1-0.1,8.9,0.1,7.8c0.2-1.1,0.7-2.2,1.3-3.1C2.1,3.8,3,3.1,4,2.5C5,2,6.1,1.7,7.2,1.7
	c1.1,0,2.3,0.2,3.3,0.6c1,0.5,2,1.1,2.7,2c0.6,0.7,1.1,1.5,1.4,2.4H15c1.1,0,2.2,0.4,3.1,1.1s1.5,1.6,1.8,2.7s0.2,2.2-0.3,3.2
	c-0.4,1-1.2,1.9-2.2,2.4C17.3,16.1,17.1,16.2,17,16.2z"/>
</svg>
