<?xml version="1.0" encoding="utf-8"?>
<!-- Generator: Adobe Illustrator 26.0.3, SVG Export Plug-In . SVG Version: 6.00 Build 0)  -->
<svg version="1.1" id="Layer_1" xmlns="http://www.w3.org/2000/svg" xmlns:xlink="http://www.w3.org/1999/xlink" x="0px" y="0px"
	 viewBox="0 0 20 20" style="enable-background:new 0 0 20 20;" xml:space="preserve">
<style type="text/css">
	.st0{fill:#1D1D1B;}
</style>
<path class="st0" d="M13.3,18.2c-0.4,0-0.8-0.3-0.8-0.8v-1.7c0-0.7-0.3-1.3-0.8-1.8c-0.5-0.5-1.1-0.8-1.8-0.8H4.2
	c-0.7,0-1.3,0.3-1.8,0.8c-0.5,0.5-0.8,1.1-0.8,1.8v1.7c0,0.4-0.3,0.8-0.8,0.8s-0.8-0.3-0.8-0.8v-1.7c0-1.1,0.4-2.1,1.2-2.9
	c0.8-0.8,1.8-1.2,2.9-1.2H10c1.1,0,2.1,0.4,2.9,1.2s1.2,1.8,1.2,2.9v1.7C14.1,17.9,13.7,18.2,13.3,18.2z M19.2,9.9h-5
	c-0.4,0-0.8-0.3-0.8-0.8s0.3-0.8,0.8-0.8h5c0.4,0,0.8,0.3,0.8,0.8S19.6,9.9,19.2,9.9z M7.1,9.9C4.8,9.9,3,8.1,3,5.8s1.8-4.1,4.1-4.1
	s4.1,1.8,4.1,4.1S9.3,9.9,7.1,9.9z M7.1,3.2c-1.4,0-2.6,1.2-2.6,2.6s1.2,2.6,2.6,2.6s2.6-1.2,2.6-2.6S8.5,3.2,7.1,3.2z"/>
</svg>
