<?xml version="1.0" encoding="utf-8"?>
<!-- Generator: Adobe Illustrator 26.0.3, SVG Export Plug-In . SVG Version: 6.00 Build 0)  -->
<svg version="1.1" id="Layer_1" xmlns="http://www.w3.org/2000/svg" xmlns:xlink="http://www.w3.org/1999/xlink" x="0px" y="0px"
	 viewBox="0 0 24 24" style="enable-background:new 0 0 24 24;" xml:space="preserve">
<style type="text/css">
	.st0{fill:#1D1D1B;}
</style>
<path class="st0" d="M23,22c-0.6,0-1-0.4-1-1v-2c0-0.7-0.2-1.3-0.6-1.8c-0.4-0.5-1-0.9-1.6-1.1c-0.5-0.1-0.9-0.7-0.7-1.2
	c0.1-0.5,0.7-0.9,1.2-0.7c1.1,0.3,2,0.9,2.7,1.8c0.7,0.9,1,2,1,3.1v2C24,21.6,23.6,22,23,22z M17,22c-0.6,0-1-0.4-1-1v-2
	c0-0.8-0.3-1.6-0.9-2.1S13.8,16,13,16H5c-0.8,0-1.6,0.3-2.1,0.9C2.3,17.4,2,18.2,2,19v2c0,0.6-0.4,1-1,1s-1-0.4-1-1v-2
	c0-1.3,0.5-2.6,1.5-3.5C2.4,14.5,3.7,14,5,14h8c1.3,0,2.6,0.5,3.5,1.5c0.9,0.9,1.5,2.2,1.5,3.5v2C18,21.6,17.6,22,17,22z M9,12
	c-2.8,0-5-2.2-5-5s2.2-5,5-5s5,2.2,5,5S11.8,12,9,12z M9,4C7.3,4,6,5.3,6,7s1.3,3,3,3s3-1.3,3-3S10.7,4,9,4z M16,11.9
	c-0.4,0-0.9-0.3-1-0.8c-0.1-0.5,0.2-1.1,0.7-1.2c0.6-0.2,1.2-0.5,1.6-1.1S18,7.7,18,7s-0.2-1.3-0.6-1.8c-0.4-0.5-1-0.9-1.6-1.1
	C15.2,4,14.9,3.4,15,2.9s0.7-0.9,1.2-0.7c1.1,0.3,2,0.9,2.7,1.8c0.7,0.9,1,2,1,3.1s-0.4,2.2-1,3.1c-0.7,0.9-1.6,1.5-2.7,1.8
	C16.2,11.9,16.1,11.9,16,11.9z"/>
</svg>
