<svg width="119" height="42" fill="none" xmlns="http://www.w3.org/2000/svg"><path d="M47.43 6.65h2.452v12.12H47.43V6.65Z" fill="#2362FB"/><path fill-rule="evenodd" clip-rule="evenodd" d="M50.641 3.68a1.632 1.632 0 0 1-1.261.528v.003a1.696 1.696 0 0 1-1.238-.513 1.772 1.772 0 0 1-.502-1.265 1.673 1.673 0 0 1 .504-1.228 1.803 1.803 0 0 1 2.487 0c.32.323.497.767.488 1.227.007.464-.165.912-.478 1.248Zm19.541 14.813h-2.427l.002-7.495c0-.953-.216-1.662-.636-2.113-.42-.45-1.012-.678-1.758-.678-.811 0-1.461.282-1.932.837a3.077 3.077 0 0 0-.719 2.054v7.395h-2.427v-7.501c0-.865-.216-1.561-.646-2.054-.43-.492-1.024-.733-1.8-.733a2.355 2.355 0 0 0-1.88.838 3.04 3.04 0 0 0-.719 2.028v7.42h-2.456V6.341h2.207l.129 1.25a3.789 3.789 0 0 1 1.247-1.09 4.215 4.215 0 0 1 2.048-.515 4.31 4.31 0 0 1 2.384.672 3.721 3.721 0 0 1 1.355 1.524 3.848 3.848 0 0 1 1.402-1.545 4.353 4.353 0 0 1 2.357-.65c1.254 0 2.289.395 3.079 1.18.79.784 1.19 1.909 1.19 3.339v7.986Zm4.425-1.488a4.27 4.27 0 0 0 1.526 1.233c.815.387 1.704.58 2.602.566a5.625 5.625 0 0 0 2.973-.8 5.48 5.48 0 0 0 2.047-2.267c.5-1.03.752-2.166.733-3.315a7.442 7.442 0 0 0-.733-3.349 5.532 5.532 0 0 0-2.03-2.272 5.56 5.56 0 0 0-2.965-.792 5.472 5.472 0 0 0-2.735.693 4.604 4.604 0 0 0-1.61 1.464l-.153-1.804h-2.057V23.76h2.402v-6.755Zm.168-4.513c0 1.246.332 2.24.985 2.962.65.717 1.507 1.08 2.603 1.08 1.096 0 1.98-.379 2.647-1.135.667-.757 1.006-1.758 1.006-2.976 0-1.244-.341-2.252-1.004-2.989-.663-.736-1.53-1.11-2.623-1.11-1.092 0-1.974.376-2.628 1.125-.654.748-.986 1.773-.986 3.043Zm19.393 5.651a4.534 4.534 0 0 0 1.572-1.397v1.748h2.326V6.375h-2.068l-.168 1.648a4.633 4.633 0 0 0-1.6-1.38 6.029 6.029 0 0 0-5.665.179 5.54 5.54 0 0 0-2.048 2.27 8.078 8.078 0 0 0-.032 6.685 5.407 5.407 0 0 0 1.995 2.245c.884.539 1.897.816 2.927.8a5.619 5.619 0 0 0 2.761-.679Zm.372-2.746c.673-.745 1.016-1.768 1.016-3.037 0-1.227-.343-2.225-1.004-2.953-.662-.727-1.546-1.097-2.623-1.097-1.11 0-2.002.372-2.66 1.12-.658.75-.993 1.752-.993 2.979 0 1.226.338 2.236.993 2.984.655.747 1.513 1.126 2.608 1.126 1.095 0 1.99-.378 2.663-1.122Zm7.98 2.642a6.407 6.407 0 0 0 3.218.792c1.477 0 2.754-.41 3.798-1.216a4.958 4.958 0 0 0 1.906-3.202l.028-.16h-2.502l-.024.107a2.588 2.588 0 0 1-1.1 1.608c-.591.412-1.318.62-2.158.62-1.127 0-2.021-.38-2.658-1.127-.638-.747-.969-1.765-.969-3.011 0-1.296.338-2.328 1.003-3.068.666-.74 1.551-1.109 2.624-1.109.84 0 1.563.203 2.145.606.566.382.965.973 1.114 1.65l.024.105h2.499l-.026-.16a4.875 4.875 0 0 0-1.888-3.25c-1.034-.792-2.327-1.194-3.842-1.194a6.284 6.284 0 0 0-3.181.798 5.63 5.63 0 0 0-2.169 2.256 6.99 6.99 0 0 0-.775 3.338c0 1.258.258 2.386.766 3.351a5.536 5.536 0 0 0 2.167 2.266Zm16.017-11.683v2.125h-2.856v5.962c0 .68.142 1.187.404 1.495.263.31.747.465 1.439.465.178.001.355-.012.531-.04.117-.02.235-.032.353-.039h.129v2.135l-.111.021a8.155 8.155 0 0 1-1.462.132c-1.114 0-1.959-.24-2.506-.702-.547-.462-.892-.993-1.021-1.575a8.612 8.612 0 0 1-.189-1.86V8.485h-1.759v-.7l.032-.038 3.7-4.429h.453v3.037h2.863ZM61.244 26.09a4.346 4.346 0 0 0-2.357.65 3.848 3.848 0 0 0-1.402 1.545 3.725 3.725 0 0 0-1.352-1.524 4.304 4.304 0 0 0-2.384-.67 4.22 4.22 0 0 0-2.048.513 3.799 3.799 0 0 0-1.246 1.09l-.13-1.25H48.12v12.148h2.456v-7.423a3.047 3.047 0 0 1 .719-2.029 2.358 2.358 0 0 1 1.88-.837c.782 0 1.37.24 1.8.733.433.493.647 1.188.647 2.053v7.5h2.426v-7.394a3.077 3.077 0 0 1 .719-2.055c.472-.554 1.122-.837 1.939-.837.747 0 1.338.229 1.758.68.42.452.637 1.16.637 2.106v7.5h2.426v-7.98c0-1.43-.4-2.555-1.19-3.34-.791-.784-1.84-1.179-3.092-1.179Zm14.406.619c.631.328 1.18.802 1.604 1.382l.164-1.648h2.068v12.12H77.16v-1.75a4.539 4.539 0 0 1-1.571 1.398c-.85.46-1.8.694-2.761.68a5.435 5.435 0 0 1-2.927-.801 5.398 5.398 0 0 1-1.995-2.245 8.078 8.078 0 0 1 .032-6.684 5.553 5.553 0 0 1 2.047-2.273 6.04 6.04 0 0 1 5.666-.18Zm1.335 5.722c0 1.27-.343 2.294-1.016 3.037-.673.743-1.568 1.122-2.663 1.122-1.094 0-1.953-.379-2.608-1.127-.655-.749-.993-1.751-.993-2.974 0-1.223.335-2.227.993-2.976.658-.749 1.551-1.121 2.66-1.121 1.077 0 1.96.368 2.623 1.096.661.727 1.004 1.718 1.004 2.943Zm7.978-5.577a3.733 3.733 0 0 1 1.963-.511c.379-.001.757.034 1.13.106l.108.023v2.18l-.16-.03a4.989 4.989 0 0 0-.798-.05c-1.002 0-1.784.305-2.327.914-.543.608-.82 1.468-.82 2.556v6.524h-2.455V26.447h2.178l.203 1.432c.227-.428.566-.782.978-1.025Z" fill="#2362FB"/><path d="M98.985 26.737h-3.058l-5.15 5.511V21.363h-2.452v17.494h2.452v-3.44l2.159-2.29 2.98 5.657.04.073h2.759l-4.042-7.551 4.312-4.57Z" fill="#2362FB"/><path fill-rule="evenodd" clip-rule="evenodd" d="M114.287 23.69h.455l.003 3.042h2.861v2.125h-2.861v5.962c0 .68.141 1.187.403 1.496.262.309.747.465 1.439.465.177 0 .355-.013.531-.04.117-.02.235-.033.354-.04h.129v2.13l-.111.021a8.16 8.16 0 0 1-1.46.132c-1.116 0-1.961-.24-2.508-.702-.547-.462-.892-.993-1.021-1.575a8.613 8.613 0 0 1-.189-1.86v-5.989h-1.759v-.7l.034-.038 3.7-4.429Zm-6.448 11.43a2.773 2.773 0 0 1-1.194 1.414 3.878 3.878 0 0 1-2.044.528c-1.045 0-1.913-.329-2.577-.977-.636-.622-.985-1.453-1.043-2.472h9.089l.023-.107c.083-.455.119-.918.108-1.381a6.114 6.114 0 0 0-.718-2.98 5.212 5.212 0 0 0-1.997-2.04 5.89 5.89 0 0 0-2.973-.732 6.055 6.055 0 0 0-3.077.786 5.505 5.505 0 0 0-2.132 2.244 7.078 7.078 0 0 0-.767 3.338c0 1.26.258 2.386.754 3.349a5.56 5.56 0 0 0 2.132 2.271 6.12 6.12 0 0 0 3.168.814c1.382 0 2.608-.366 3.645-1.087a4.712 4.712 0 0 0 1.981-2.89l.038-.17h-2.382l-.034.092Zm-6.834-3.393c.061-.948.397-1.717 1.003-2.285.64-.598 1.478-.901 2.49-.901.951 0 1.733.302 2.32.897.56.57.863 1.338.905 2.289h-6.718ZM1.163 24.229C2.397 33.824 10.4 40.998 19.873 41h.001C27.1 41 33.692 36.784 36.85 30.144c3.158-6.641 2.326-14.541-2.141-20.345a18.958 18.958 0 0 0-9.959-6.71.293.293 0 0 0-.317.119l-.717 1.048a.306.306 0 0 0-.01.33c1.158 1.905.806 4.385-.833 5.876a.302.302 0 0 0-.092.277l.222 1.212c.02.106.094.194.194.23 3.951 1.433 6.59 5.254 6.586 9.538 0 5.546-4.389 10.065-9.805 10.121-5.327.056-9.78-4.253-10.002-9.69-.189-4.44 2.48-8.484 6.58-9.97a.301.301 0 0 0 .192-.23l.22-1.212a.3.3 0 0 0-.091-.277c-1.64-1.49-1.992-3.97-.836-5.875a.305.305 0 0 0-.009-.33l-.716-1.048a.293.293 0 0 0-.318-.12C5.847 5.59-.072 14.633 1.163 24.228ZM6.43 10.914A17.276 17.276 0 0 1 13.8 5.379a6.542 6.542 0 0 0 1.093 5.542c-4.09 1.97-6.699 6.175-6.695 10.794 0 6.578 5.239 11.93 11.678 11.93 6.44 0 11.679-5.352 11.679-11.93.003-4.619-2.605-8.825-6.695-10.794a6.542 6.542 0 0 0 1.093-5.542 17.27 17.27 0 0 1 7.368 5.535 17.53 17.53 0 0 1 3.659 10.8c0 7.653-4.872 14.416-12.025 16.688-7.153 2.273-14.921-.474-19.168-6.777-4.248-6.303-3.986-14.697.645-20.711Z" fill="#2362FB"/><path d="m1.163 24.229-.287.036.287-.037Zm35.687 5.915-.261-.124.26.124ZM34.709 9.799l.229-.176-.23.176ZM24.75 3.09l.077-.28h-.003l-.074.28Zm-.317.119-.239-.164.239.164Zm-.717 1.048.239.163-.239-.163Zm-.01.33-.247.149.248-.15Zm-.833 5.876-.195-.214.195.214Zm-.092.277.284-.052-.284.052Zm.222 1.212-.284.052v.001l.284-.053Zm.194.23.098-.272-.001-.001-.097.272Zm6.586 9.538h-.289.29ZM19.978 31.84l-.003-.289.003.29ZM9.976 22.15l.288-.012-.288.012Zm6.58-9.97-.098-.272.098.272Zm.192-.23.285.053v-.001l-.285-.052Zm.22-1.212-.284-.053v.002l.284.051Zm-.091-.277.194-.214-.194.214Zm-.836-5.875-.247-.15.247.15Zm-.009-.33-.239.163h.001l.238-.163Zm-.716-1.048-.24.162h.001l.239-.162Zm-.318-.12-.073-.28h-.003l.076.28Zm-1.2 2.291V5.09h-.054l-.05.02.105.27Zm-7.367 5.535-.228-.177.228.177ZM13.8 5.379l.28.072.092-.36H13.8v.288Zm1.092 5.542.126.26.316-.152-.21-.281-.232.173ZM8.197 21.715h.289-.29Zm23.357 0h-.29.29ZM24.859 10.92l-.231-.173-.211.281.317.153.125-.26Zm1.093-5.542.105-.269-.525-.205.14.546.28-.072Zm7.368 5.535-.229.177.229-.177Zm3.659 10.8h-.29v.001h.29ZM24.954 38.403l-.088-.275.088.275ZM5.786 31.625l-.24.161.24-.161Zm14.088 9.087c-9.323-.003-17.209-7.065-18.425-16.52l-.573.073C2.128 34 10.251 41.287 19.874 41.29v-.578Zm0 0h-.001v.578-.578Zm-.002.578h.002v-.578h-.002v.578Zm.002-.578v.578-.578ZM36.59 30.02c-3.11 6.542-9.603 10.691-16.715 10.692v.578c7.34-.001 14.032-4.283 17.237-11.022l-.522-.248Zm-2.11-20.045c4.402 5.717 5.221 13.501 2.11 20.045l.522.248c3.204-6.739 2.36-14.755-2.173-20.645l-.458.352Zm-9.806-6.608a18.669 18.669 0 0 1 9.807 6.609l.458-.353A19.246 19.246 0 0 0 24.826 2.81l-.154.557Zm-.002.004a.009.009 0 0 1 .004-.003l.149-.559a.582.582 0 0 0-.63.235l.477.327Zm-.716 1.048.716-1.048-.477-.326-.716 1.048.477.326Zm0 .018a.017.017 0 0 1-.003-.01c0-.003.001-.006.003-.008l-.477-.326a.595.595 0 0 0-.019.642l.495-.298Zm-.888 6.238c1.743-1.584 2.115-4.217.887-6.24l-.494.3c1.086 1.789.755 4.116-.782 5.513l.39.427Zm-.002.011a.014.014 0 0 1 .003-.012l-.39-.425a.591.591 0 0 0-.181.542l.568-.104Zm.222 1.213-.222-1.212-.568.104.222 1.212.568-.104Zm.007.009c-.001 0-.005-.003-.007-.01l-.568.106a.59.59 0 0 0 .38.448l.195-.544Zm6.778 9.812c.004-4.403-2.708-8.335-6.777-9.811l-.197.543c3.835 1.39 6.4 5.101 6.396 9.267h.578Zm-10.09 10.409c5.579-.058 10.09-4.711 10.09-10.41h-.578c0 5.393-4.267 9.778-9.519 9.832l.006.578ZM9.686 22.161c.229 5.589 4.806 10.025 10.294 9.968l-.006-.578c-5.165.054-9.494-4.127-9.71-9.413l-.578.023Zm6.77-10.253c-4.22 1.53-6.964 5.692-6.77 10.254l.577-.025c-.183-4.316 2.413-8.244 6.39-9.685l-.197-.543Zm.007-.01c-.001.008-.005.01-.006.01l.196.544a.59.59 0 0 0 .379-.45l-.569-.104Zm.22-1.211-.22 1.212.569.103.22-1.212-.569-.103Zm-.002-.013c.001.001.004.005.003.01l.567.108a.59.59 0 0 0-.18-.545l-.39.427Zm-.888-6.238c-1.228 2.022-.854 4.654.888 6.239l.389-.428c-1.536-1.397-1.868-3.723-.783-5.511l-.494-.3Zm0-.016a.014.014 0 0 1 .002.007c0 .004 0 .007-.002.009l.494.3a.593.593 0 0 0-.018-.644l-.476.328Zm-.717-1.05.716 1.049.477-.326-.716-1.048-.477.326Zm-.005-.003h.001l.004.003.477-.325a.582.582 0 0 0-.63-.237l.148.559ZM1.449 24.192C.233 14.735 6.066 5.829 15.074 3.366l-.152-.557C5.628 5.35-.376 14.532.876 24.265l.573-.073ZM13.694 5.11a17.565 17.565 0 0 0-7.491 5.627l.457.354a16.987 16.987 0 0 1 7.244-5.443l-.21-.538Zm.106-.02h-.001v.578-.578Zm1.323 5.658a6.253 6.253 0 0 1-1.043-5.297l-.56-.143a6.831 6.831 0 0 0 1.141 5.787l.462-.347ZM8.486 21.715c-.004-4.51 2.543-8.614 6.532-10.533l-.251-.521c-4.193 2.018-6.863 6.326-6.859 11.054h.578Zm11.39 11.641c-6.275 0-11.39-5.216-11.39-11.641h-.578c0 6.732 5.362 12.22 11.967 12.22v-.579Zm11.389-11.641c0 6.425-5.115 11.641-11.39 11.641v.578c6.605 0 11.968-5.487 11.968-12.22h-.578Zm-6.531-10.533c3.987 1.92 6.534 6.022 6.53 10.533h.579c.003-4.727-2.666-9.035-6.859-11.054l-.25.52Zm.938-5.73a6.253 6.253 0 0 1-1.044 5.296l.462.347a6.831 6.831 0 0 0 1.142-5.787l-.56.143Zm7.876 5.285a17.559 17.559 0 0 0-7.491-5.627l-.21.538a16.98 16.98 0 0 1 7.244 5.443l.457-.354Zm3.72 10.979a17.82 17.82 0 0 0-3.72-10.979l-.456.354a17.242 17.242 0 0 1 3.598 10.623l.578.002ZM25.04 38.678c7.276-2.312 12.228-9.188 12.227-16.963h-.578c.001 7.53-4.794 14.179-11.824 16.412l.175.55ZM5.546 31.786c4.318 6.408 12.218 9.204 19.495 6.892l-.175-.551c-7.028 2.233-14.664-.465-18.84-6.664l-.48.323Zm.657-21.048C1.495 16.85 1.229 25.38 5.546 31.786l.48-.323c-4.179-6.2-3.921-14.457.634-20.373l-.457-.352Z" fill="#2362FB"/></svg>